<svg width="16" height="15" viewBox="0 0 16 15" fill="none" xmlns="http://www.w3.org/2000/svg">
<path d="M7.66813 3.68162C5.51604 3.68162 3.78016 5.38494 3.78016 7.49666C3.78016 9.60838 5.51604 11.3117 7.66813 11.3117C9.82022 11.3117 11.5561 9.60838 11.5561 7.49666C11.5561 5.38494 9.82022 3.68162 7.66813 3.68162ZM7.66813 9.97693C6.27739 9.97693 5.14044 8.86463 5.14044 7.49666C5.14044 6.12869 6.27401 5.01639 7.66813 5.01639C9.06225 5.01639 10.1958 6.12869 10.1958 7.49666C10.1958 8.86463 9.05887 9.97693 7.66813 9.97693ZM12.622 3.52557C12.622 4.02029 12.2159 4.41541 11.7151 4.41541C11.211 4.41541 10.8083 4.01697 10.8083 3.52557C10.8083 3.03416 11.2143 2.63572 11.7151 2.63572C12.2159 2.63572 12.622 3.03416 12.622 3.52557ZM15.1971 4.42869C15.1395 3.2367 14.8621 2.18084 13.9721 1.31092C13.0856 0.440997 12.0095 0.168732 10.7948 0.108966C9.54275 0.0392395 5.79013 0.0392395 4.53813 0.108966C3.32673 0.165411 2.25068 0.437677 1.36075 1.3076C0.47081 2.17752 0.196722 3.23338 0.135814 4.42537C0.0647546 5.65389 0.0647546 9.33611 0.135814 10.5646C0.193339 11.7566 0.47081 12.8125 1.36075 13.6824C2.25068 14.5523 3.32334 14.8246 4.53813 14.8844C5.79013 14.9541 9.54275 14.9541 10.7948 14.8844C12.0095 14.8279 13.0856 14.5556 13.9721 13.6824C14.8587 12.8125 15.1362 11.7566 15.1971 10.5646C15.2681 9.33611 15.2681 5.65721 15.1971 4.42869ZM13.5796 11.8828C13.3157 12.5336 12.8047 13.0349 12.1381 13.2972C11.1399 13.6857 8.77125 13.5961 7.66813 13.5961C6.56502 13.5961 4.19298 13.6824 3.19814 13.2972C2.53492 13.0383 2.02397 12.5369 1.75665 11.8828C1.36075 10.9033 1.45211 8.57908 1.45211 7.49666C1.45211 6.41424 1.36413 4.0867 1.75665 3.11053C2.02059 2.45975 2.53154 1.95838 3.19814 1.69608C4.19636 1.3076 6.56502 1.39725 7.66813 1.39725C8.77125 1.39725 11.1433 1.31092 12.1381 1.69608C12.8013 1.95506 13.3123 2.45643 13.5796 3.11053C13.9755 4.09002 13.8842 6.41424 13.8842 7.49666C13.8842 8.57908 13.9755 10.9066 13.5796 11.8828Z" fill="black"/>
</svg>
