<svg width="13" height="16" viewBox="0 0 13 16" fill="none" xmlns="http://www.w3.org/2000/svg">
<path d="M6.54894 0.203125C3.30862 0.203125 0.106201 2.34063 0.106201 5.8C0.106201 8 1.35685 9.25 2.11482 9.25C2.42748 9.25 2.6075 8.3875 2.6075 8.14375C2.6075 7.85313 1.859 7.23438 1.859 6.025C1.859 3.5125 3.79182 1.73125 6.29312 1.73125C8.44386 1.73125 10.0356 2.94062 10.0356 5.1625C10.0356 6.82187 9.3629 9.93437 7.18373 9.93437C6.39734 9.93437 5.72464 9.37187 5.72464 8.56563C5.72464 7.38438 6.55841 6.24062 6.55841 5.02187C6.55841 2.95312 3.59286 3.32812 3.59286 5.82812C3.59286 6.35313 3.65918 6.93437 3.89604 7.4125C3.46021 9.26875 2.5696 12.0344 2.5696 13.9469C2.5696 14.5375 2.65487 15.1188 2.71172 15.7094C2.8191 15.8281 2.76541 15.8156 2.92963 15.7563C4.52137 13.6 4.46452 13.1781 5.18459 10.3562C5.57305 11.0875 6.57736 11.4812 7.37323 11.4812C10.7272 11.4812 12.2337 8.24688 12.2337 5.33125C12.2337 2.22813 9.52396 0.203125 6.54894 0.203125Z" fill="black"/>
</svg>
