<svg width="17" height="14" viewBox="0 0 17 14" fill="none" xmlns="http://www.w3.org/2000/svg">
<path d="M14.5929 3.74107C14.6032 3.88319 14.6032 4.02535 14.6032 4.16747C14.6032 8.50247 11.2687 13.4974 5.17412 13.4974C3.2965 13.4974 1.55229 12.9593 0.085083 12.0253C0.351856 12.0558 0.608334 12.0659 0.885372 12.0659C2.43463 12.0659 3.86081 11.5482 4.99969 10.6649C3.54275 10.6345 2.32179 9.69031 1.90111 8.39081C2.10633 8.42125 2.31152 8.44156 2.52701 8.44156C2.82454 8.44156 3.12211 8.40094 3.39911 8.32991C1.88062 8.02531 0.741705 6.70553 0.741705 5.11163V5.07103C1.18287 5.31469 1.69592 5.46697 2.23967 5.48725C1.34704 4.89841 0.762233 3.89335 0.762233 2.75628C0.762233 2.14716 0.926365 1.58878 1.21367 1.10147C2.84504 3.09131 5.29722 4.39078 8.04691 4.53294C7.99562 4.28928 7.96483 4.0355 7.96483 3.78169C7.96483 1.97457 9.4423 0.502502 11.2789 0.502502C12.233 0.502502 13.0949 0.89844 13.7003 1.53803C14.4492 1.39591 15.1674 1.12178 15.8036 0.746159C15.5573 1.5076 15.0341 2.14719 14.3466 2.55325C15.0136 2.48222 15.6599 2.29944 16.255 2.04566C15.8036 2.69538 15.2393 3.27403 14.5929 3.74107Z" fill="black"/>
</svg>
